<?xml version="1.0" encoding="utf-8" ?>
<svg xmlns="http://www.w3.org/2000/svg" xmlns:xlink="http://www.w3.org/1999/xlink" width="1024" height="1024">
	<path d="M105.18 591.75C106.489 591.501 106.833 591.758 108.095 592.25C109.131 593.447 110.387 594.85 110.563 596.5C110.762 598.362 110.259 598.921 109.067 600.25L108.428 600.434C107.12 600.621 106.784 600.546 105.844 599.732C104.426 598.503 103.544 597.194 103.5 595.265C103.461 593.617 104.075 592.885 105.18 591.75Z"/>
	<path d="M917.079 591.25L917.832 591.144C919.428 591.049 920.518 591.784 921.678 592.75C922.641 594.415 922.525 595.374 922.296 597.25C921.308 598.81 920.616 599.406 918.981 600.25C916.851 600.465 916.627 600.407 914.75 599.372C913.631 597.664 913.513 596.775 913.583 594.75C914.763 592.679 914.988 592.368 917.079 591.25Z"/>
	<path d="M715.245 233.75C716.839 233.205 718.845 233.454 720.474 233.759C725.887 234.771 731.267 238.053 734.571 242.5C736.059 244.503 737.158 246.836 738.586 248.906L739.447 248.5C740.444 247.874 740.789 247.34 742 246.991C743.823 248.01 745.795 248.266 747.501 249.25L746.973 251.5C748.966 255.352 756.266 254.258 760.242 255.688C764.881 257.356 768.169 260.704 770.25 265.111L769.75 265.461L767.558 263.359C766.468 262.432 765.72 261.705 764.25 261.47L762.5 262.994L760.5 262.486C759.319 262.194 758.213 261.92 756.983 262.016C753.373 262.298 750.011 263.911 746.492 264.306C744.344 264.547 742.103 263.97 740 264.529C738.366 264.964 736.645 265.953 735.127 266.708C735.089 264.963 735.13 262.667 734.359 261.063C733.797 259.895 732.872 259.322 732.447 258C731.382 254.693 729.63 252.47 728.178 249.415C727.171 247.296 726.932 244.652 725.563 242.75C724.994 241.959 723.832 241.22 723.055 240.656L722.471 240.25L723.342 237.5C721.972 235.955 719.608 235.034 717.615 234.697C716.573 234.521 716.058 234.498 715.245 233.75Z"/>
	<path d="M250.48 274.584L266.104 275.142C261.741 277.745 259.493 281.327 255.562 284.207C249.345 288.76 246.045 296.713 244.856 304.039C242.774 303.204 240.505 302.129 238.314 301.666C233.619 300.673 226.803 301.423 221.92 301.449L221.329 301.245C219.332 300.517 217.717 299.726 215.542 300.15L214.76 300.315C213.205 300.608 211.734 300.361 210.425 299.5C210.664 297.638 213.248 295.562 214.694 294.373C220.054 289.963 224.376 289.701 231 290.315L231.464 289.75C230.743 288.651 230.41 287.869 230.137 286.582L230.584 286.47C232.779 286.184 235.335 288.823 236.936 290.098C241.912 284.387 243.319 278.472 250.48 274.584Z"/>
	<path d="M838.539 404.685C840.32 404.52 841.991 404.84 843.75 405.11L843.75 405.664L843.179 405.793L842.25 406.014C840.353 406.446 838.221 406.898 836.689 408.194C835.241 409.418 835.551 411.993 835.448 413.75L831.25 414.093C830.291 415.52 829.000 416.761 829.257 418.402C828.832 419.74 825.725 421.294 824.573 422.515C822.294 424.929 821.389 428.423 821.429 431.661L821.446 432.25L820.973 432.636L820.25 433.241C819.55 433.797 818.806 434.263 818.25 434.985C816.429 437.351 816.116 440.073 816.676 442.909L817.455 446.765C816.273 444.671 814.652 440.819 812.75 439.472L811.6 439.75L811.5 441.25C811.306 441.423 811.163 441.685 810.916 441.769C810.751 441.826 808.282 440.976 808 440.892C805.129 440.039 802.491 439.043 799.5 439.922C799.03 440.515 798.55 441.029 798 441.549L796.75 441.058L794.616 439.947C789.339 437.737 787.825 441.411 783.75 443.014L782.176 441.169L781.855 440.25L781.225 440.138C000.394 439.879 774.304 443.621 771.783 446.007C774.417 440.889 000.575 434.809 782.597 431.634C788.559 427.865 793.806 427.711 800.5 429.201C801.658 428.761 802.127 428.549 802.81 427.5L801.524 425.25L801.75 424.446C803.202 424.274 804.411 424.108 805.719 423.41C808.518 421.918 807.935 423.522 810.5 424.011C813.353 422.075 814.798 418.189 816.931 415.5C822.646 408.294 829.745 405.825 838.539 404.685Z"/>
	<path d="M741.164 323.615C743.801 323.529 746.685 323.249 749.275 323.801L750 323.969L754.25 325.061C767.049 329.244 774.606 338.376 780.385 350.067L781.898 347.281C782.928 345.413 783.608 343.639 785.75 343.017C787.481 344.656 786.295 345.549 787.464 347.162C790.028 347.799 792.192 348.448 794.845 347.82L795.356 347.682C795.607 349.836 792.765 353.878 791.677 355.931C797.786 354.393 803.248 352.614 809.61 352.252C825.514 351.347 837.729 360.736 848.991 370.685C844.984 368.651 841.237 367.098 836.893 365.916L837.115 372.755C835.756 371.178 834.251 367.754 832.356 367L831.638 366.75C827.432 366.246 824.411 366.702 820.947 369.165L820.5 369.488C819.254 368.718 818.296 368.194 816.844 367.941L816.25 367.848C809.581 366.745 801.847 368.307 796 371.497C790.804 370.565 788.482 372.869 783.75 374.19C783.085 373.316 782.557 372.76 781.637 372.157C779.477 374.818 778.155 379.213 776.534 382.333C776.499 378.743 778.509 375.3 778.25 371.783C776.987 370.547 775.839 369.905 774.242 369.147C772.919 368.518 771.561 363.209 770.603 361.532C768.953 358.642 766.646 355.985 764.688 353.292C762.811 350.709 760.639 346.926 758.008 345.087C753.91 342.222 751.694 343.063 747.258 343.948L748.621 338.843C747.463 336.954 745.978 334.915 744.204 333.572C738.515 329.264 729.431 330.184 722.782 331.19C725.341 328.79 730.005 326.628 733.294 325.488L741.164 323.615Z"/>
	<path d="M807.45 620.311L808.5 620.47C824.445 606.529 834.37 592.124 841.862 572.444C828.499 577.353 814.694 581.671 800.422 582.806C796.274 583.136 792.022 582.951 787.862 582.889C796.906 580.393 805.502 577.501 813.502 572.46C830.092 562.005 842.466 543.571 846.81 524.547C841.877 525.515 837.029 526.846 831.957 526.43C829.632 526.239 827.217 525.411 824.973 524.783C827.977 523.776 830.951 522.711 833.399 520.618C840.612 514.454 844.282 502.27 846.859 493.482C854.812 466.364 857.711 439.289 859.548 411.223C860.284 411.735 860.419 417.679 860.484 418.669L863.471 452C865.32 470.399 867.533 490.378 875.535 507.25C879.058 514.678 883.45 520.41 888.929 526.445L871.438 526.404C877.845 546.156 890.327 564.739 908.331 575.657C913.446 578.759 919.152 580.896 924.398 583.798C910.005 582.166 896.17 581.771 882.561 576.269C886.776 585.774 891.559 594.825 898.033 603.01C914.877 624.305 937.579 633.33 964 636.476C938.773 641.901 913.821 637.676 890.528 627.269L911.99 655.652C933.051 678.723 959.219 693.789 990.418 698.029C997.951 699.052 1005.62 699.103 1013.21 699.456C995.827 702.838 978.013 706.762 960.275 707.47C950.551 707.858 941.205 706.983 931.584 705.75C928.07 705.299 924.472 705.185 921 704.456C912.494 702.67 904.227 699.813 896.055 696.898C905.873 712.274 919.69 724.859 934.215 735.643C955.18 751.206 978.623 763.975 1004.24 769.866L941.961 769.084C931.797 793.263 921.459 817.38 909.02 840.5L887.768 876.476L898.75 871.977C904.589 868.808 908.43 863.035 911.88 857.556C920.059 844.568 926.014 830.466 930.658 815.861C930.606 821.778 928.895 827.796 927.508 833.517C924.789 844.735 921.619 855.565 917.773 866.452C926.594 862.403 935.216 858.349 944.553 855.59C949.413 854.153 954.587 853.374 959.571 852.472C942.47 860.87 924.617 869.464 910.181 882.13C900.035 891.031 892.215 901.805 886.671 914.092C901.402 898.836 917.081 889.106 938.429 887.195C918.254 895.751 902.51 907.023 891.735 926.446C900.91 927.96 910.83 927.775 920.148 928.179L965.006 931.448C974.732 932.398 984.367 933.031 993.848 935.537C986.597 937.38 979.255 937.978 971.839 938.72L928.471 941.826L793.101 948.453C773.207 948.948 753.231 947.677 733.355 948.878C739.108 946.651 745.782 945.577 751.786 944.021L793.03 933.384C793.387 932.773 793.402 932.786 793.721 932.013C798.978 919.278 795.655 905.818 790.568 893.684C796.475 900.501 802.758 907.282 804.922 916.355C806.061 921.126 805.945 925.888 805.844 930.75C807.134 931.421 807.852 931.084 809.25 930.909C816.937 923.624 824.206 915.121 830.021 906.248C838.432 893.414 845.287 879.519 853.9 866.825C849.696 881.552 845.175 895.451 837.383 908.766C849.677 901.001 858.115 889.598 866.871 878.228C892.814 844.539 914.983 807.088 931.184 767.767C923.481 766.007 915.547 763.042 908.5 759.468C904.173 757.274 899.848 754.305 895.137 753.031C891.791 752.127 888.282 752.063 884.837 751.866C877.745 768.703 870.203 784.994 860.902 800.75C850.945 817.617 839.074 833.877 826.519 848.897C760.541 927.837 661.024 971.086 559.75 979.423C547.357 980.443 534.66 980.352 522.223 980.625C480.081 981.549 437.37 978.574 396.185 969.177C336.985 955.67 281.509 928.112 235.531 888.429L234.821 889.63C226.542 903.812 226.674 918.138 230.738 933.722L296.579 948.587L276.41 948.892L209.519 948.566L110.272 943.167C84.0086 941.414 57.603 940.235 31.6392 935.739C41.4453 932.726 51.8527 931.757 62.0321 930.887L99.75 928.506L133.788 926.432C127.223 914.512 116.06 903.604 104.214 896.903C98.2525 893.532 91.6294 890.985 85.365 888.205C99.6578 889.17 113.116 894.69 124.593 903.182C129.75 906.998 134.525 911.641 139.322 915.91C134.944 908.942 130.871 901.861 125.853 895.313C110.402 875.148 89.6449 865.325 67.5031 854.382L67.75 853.906L108.168 866.957C100.572 851.303 93.6968 836.245 90.3101 819.044C89.8742 816.83 88.6016 813.444 89.25 811.313L102.534 844.605C107.336 854.057 114.52 867.183 123.75 872.959C127.559 875.342 132.031 876.602 136.276 877.979L121.638 853.917C105.919 826.638 92.2869 798.333 83.4419 768.039C66.0893 769.248 49.7961 768.833 32.5591 766.427C28.7367 765.893 24.5807 765.676 20.9636 764.29L27.5 764.064C32.6323 763.76 37.5034 762.684 42.5 761.574C67.431 756.034 88.7502 743.335 105.742 724.289C113.526 715.565 119.779 705.76 127.577 697.071C118.641 699.494 110.042 702.123 100.891 703.8C81.9124 707.279 61.6009 707.539 42.5421 704.539C33.5059 703.116 24.4000 700.731 15.6045 698.544C25.9502 698.715 37.9143 697.867 47.9106 695.322C78.1476 687.625 101.071 667.678 120.725 644.362C125.815 638.323 131.242 632.072 135.289 625.284C119.139 633.725 102.792 638.561 84.4859 638.907C76.9388 639.05 69.1994 638.234 61.6638 637.776L81.4945 632.999C93.6982 629.621 107.638 623.856 117.25 615.432C129.181 604.976 137.593 589.977 145.327 576.29C138.179 578.061 130.708 580.518 123.394 581.284C115.695 582.089 107.858 581.395 100.12 581.808C104.83 579.102 110.226 577.8 114.994 575.099C135.464 563.502 146.82 542.81 152.978 520.94C149.14 522.762 145.645 523.858 141.524 524.827C153.286 506.139 158.999 483.565 162.008 461.823C162.623 457.372 165.511 429.663 164.114 427.839C161.59 424.544 157.283 418.886 153.01 418.409L152.544 418.364C152.091 417.404 152.138 417.737 152.053 416.821C151.913 415.315 150.029 415.461 149.75 413.654C153.798 411.129 161.262 411.991 165.872 412.43C175.197 413.317 182.479 418.783 187.647 426.386C189.252 428.747 190.424 431.275 192.25 433.497C193.918 434.3 195.161 434.442 197 434.526C198.023 432.87 198.313 430.816 199.019 429C200.07 426.293 201.78 424.348 203.688 422.229C204.264 424.808 205.498 428.26 205.401 430.83C205.337 432.533 204.575 434.535 204.108 436.178C206.898 436.675 209.919 436.506 212.755 436.544C213.36 436.553 214.881 436.736 215.395 436.578C217.06 436.064 220.168 433.034 221.859 431.976C226.209 429.256 231.473 426.69 236.366 425.09C247.894 421.32 261.037 421.827 271.963 427.333C267.506 429.61 262.307 429.954 259.019 434.357C257.876 435.888 257.966 436.961 258.286 438.756L258.38 439.25C257.867 439.72 257.511 439.912 256.844 440.131C249.192 442.641 243.967 448.479 236.752 451.713C231.631 454.009 225.215 454.313 219.719 455.47C207.662 458.008 194.925 464.021 188.052 474.556L188.057 470.312C187.96 461.922 185.627 453.027 180.092 446.525C178.206 444.311 175.875 442.476 174.01 440.25C173.086 439.147 172.701 437.697 171.921 436.492C170.272 433.944 168.069 431.876 165.911 429.766C167.524 447.276 169.519 464.486 172.973 481.75C175.963 496.694 178.995 512.709 190.008 523.963C187.625 524.714 182.213 523.264 179.711 522.601L178.923 522.389C179.572 528.433 180.8 534.193 183.085 539.842C190.796 558.907 204.144 572.177 222.67 580.974C228.497 583.741 234.653 585.745 240.596 588.252C222.046 586.749 203.876 582.804 186.468 576.269C194.291 595.027 205.151 615.269 222.75 626.46C228.742 630.27 235.401 632.901 241.795 635.942L245.036 629.265C243.544 628.597 241.367 628.739 239.728 628.582C237.493 628.369 235.348 627.919 233.167 627.408C233.102 626.138 235.306 622.781 235.982 621.523C238.433 616.962 240.843 612.273 242.838 607.492C249.8 590.806 255.006 573.688 258.808 556.017L245.114 556.449C252.6 541.461 256.239 525.963 261.237 510.117L280.362 450.863L285.253 434.392C286.594 429.752 287.949 424.808 290.557 420.698C293.384 416.243 298.063 412.463 303.284 411.425L304.234 411.25C312.957 409.582 322.969 410.482 331.87 410.481L331.557 374.638C331.426 359.785 332.019 344.038 327.237 329.826L317.739 330.854L313.76 317.204C319.761 310.959 325.832 304.582 330.984 297.609C344.848 278.845 354.219 256.415 360.999 234.212L365.25 218.814C366.066 215.459 366.474 209.931 368.682 207.25C370.002 207.25 369.968 207.386 370.618 208.508C372.251 211.325 372.872 215.813 373.778 218.995L379.746 237.968C389.907 266.824 402.767 293.927 426.121 314.409C426.109 316.593 426.249 321.366 424.75 323.076L421.546 323.178C419.731 324.997 419.903 328.681 418.75 331.142C417.955 331.432 417.272 331.56 416.423 331.581C411.325 331.707 408.501 329.362 405.029 326.065L404.471 385.005L439.501 384.329L439.519 236.15L418.25 242.95C417.154 237.466 416.585 232.314 416.321 226.724L404.329 229.918L401.911 218.904C409.381 211.054 416.029 202.488 422.588 193.882L459.204 141.018C456.482 140.599 452.047 141.576 449.25 141.995C352.1 156.541 262.959 213.46 204.424 291.537C163.367 346.3 136.981 411.332 129.168 479.367C126.284 504.475 125.887 530.352 129.478 555.396C125.817 559.151 120.408 561.879 115.953 564.665C110.818 567.877 105.706 571.454 100.276 574.139C98.0479 549.716 96.5293 525.154 97.7254 500.62C101.959 413.78 135.433 330.471 189.674 262.75C242.689 196.559 316.772 146.494 398.408 123.25C423.607 116.075 449.56 111.985 475.559 109.157L511.68 38.703L546.537 108.274L564.094 110.778C652.624 122.679 736.887 163.715 800.805 226.171C817.32 242.308 832.175 260.042 846.131 278.411C857.134 292.892 866.755 308.652 875.529 324.554C909.468 386.063 926.824 453.361 926.616 523.574C926.566 540.493 925.881 557.416 923.594 574.197L922.895 574.129C920.443 573.393 898.201 561.104 897.688 559.931C897.593 559.711 897.827 557.962 897.85 557.617L898.352 548.2L898.32 515.171C894.976 441.069 870.729 364.856 828.368 303.851C817.946 288.842 806.878 274.383 794.471 260.95C747.331 209.91 684.862 171.196 618.138 151.809C599.95 146.524 581.728 143.824 563.161 140.473C579.623 167.498 597.113 193.179 620.547 214.735C620.647 219.67 619.692 224.854 619.106 229.761C615.508 229.608 611.707 227.697 608.499 226.201L608.07 243.499C602.835 243.423 596.95 243.243 592.444 240.276C590.072 238.714 588.022 236.285 586.043 234.258L585.983 384.517L620.005 384.487L618.964 324.669C614.426 329.65 611.287 331.201 604.63 332.094C603.616 329.528 597.945 317.166 598.974 314.921C599.15 314.538 600.61 313.519 600.972 313.208C603.427 311.094 606.003 309.053 608.299 306.767C612.057 303.025 615.333 298.856 618.415 294.55C635.813 270.24 646.296 239.984 655.267 211.671C667.874 249.77 682.266 288.19 713.503 315.194C713.535 320.22 710.306 323.229 709.618 327.76C709.431 328.991 709.166 330.142 708.84 331.344C704.712 332.96 697.958 330.458 693.937 329.003L693.732 407.456C697.417 408.085 701.957 407.61 705.737 407.607L731.128 407.577L784.644 556.103L768.354 556.155C768.513 562.459 770.446 569.209 771.946 575.344C775.086 588.19 781.185 600.872 791.521 609.458C794.899 612.264 798.749 614.333 802.489 616.606C804.256 617.761 805.904 618.862 807.45 620.311ZM136.41 750.501C131.282 752.39 127.358 755.313 122.573 757.798C113.81 762.348 105.323 763.97 95.7144 765.703C99.8082 778.697 105.015 790.951 110.645 803.343C126.344 837.898 146.947 871.915 174.33 898.491C177.914 901.969 181.485 905.812 185.35 908.957C178.878 891.828 175.019 874.611 172.395 856.522L181.214 878.838C187.383 893.607 194.567 908.068 203.608 921.308C205.9 924.665 208.139 928.427 211.25 931.065C212.675 931.363 212.967 931.312 214.365 930.881C214.951 926.867 214.256 922.847 214.648 918.829C215.834 906.678 223.065 894.137 231.505 885.552L206.496 860.022C181.523 832.197 160.636 799.477 146.059 765.094C145.204 763.078 141.098 751.174 139.75 750.566C139.19 750.313 137.129 750.515 136.41 750.501ZM228.041 655.596L231.005 651.407C234.324 647.587 237.188 643.552 239.765 639.196C235.778 639.032 231.854 638.894 227.915 638.199C216.513 636.19 206.174 629.936 196.522 623.84C202.103 638.316 212.257 648.354 226.368 654.914L228.041 655.596ZM139.615 899.716C142.202 903.614 153.999 921.765 157.415 922.728L158.25 922.095C159.083 920.694 159.044 920.401 159.02 918.75C155.275 911.419 146.521 904.127 139.615 899.716ZM883.036 897.25C876.462 903.881 870.634 910.762 864.966 918.188C863.716 919.826 860.745 923.012 860.726 925.078L861.25 925.537C861.722 925.401 862.898 925.223 863.25 924.963C866.192 922.79 868.921 917.611 871.094 914.514L883.355 897.542L883.036 897.25Z" fill="#ffff"/>
	<path fill="#000" d="M744.221 562.047L739.471 557.25L739.75 556.552L745.002 556.289C745.387 557.903 745.554 558.98 745.25 560.62L744.221 562.047Z" />
	<path fill="#000" d="M364.716 545.212C365.129 547.879 364.927 550.986 364.988 553.705L357.25 553.648L356.115 553.232C358.331 550.31 361.97 547.691 364.716 545.212Z"/>
	<path fill="##000" d="M544.813 211.25C545.292 211.299 545.782 211.458 546.25 211.573L546.387 212.114C546.822 215.649 543.347 221.019 541.392 223.77C535.814 231.617 528.702 235.871 519.25 237.415C518.57 237.366 518.178 237.235 517.549 237C518.495 235.536 524.486 234.465 526.452 233.692C532.042 231.494 537.358 227.489 540.286 222.174C542.094 218.892 543.048 215.119 544.605 211.699L544.813 211.25Z"/>
	<path fill="#000" d="M656.328 538.718L663.189 545.518L662.978 553.502L656.255 553.481L656.328 538.718Z"/>
	<path fill="#000" d="M639.888 348.014L656.108 348.025L655.966 352.25L655 352.927C652.33 352.928 641.35 353.655 639.75 352.296L639.888 348.014Z"/>
	<path fill="#000" d="M306.023 417.068L331 417.295C332.096 418.396 331.728 419.527 331.753 421.03L309.661 421.008L307.409 420.25C307.17 419.362 306.909 418.613 306.456 417.815L306.023 417.068Z"/>
	<path fill="#000" d="M372.454 346.042L385.908 346.11L386.01 352.977C382.901 354.408 376.045 353.305 372.493 353.191L372.454 346.042Z"/>
	<path fill="#000" d="M475.707 266.25L476.135 266.281C477.187 270.873 476.454 276.89 476.483 281.701C476.58 297.758 476.861 313.825 475.843 329.858C475.467 335.779 475.301 341.797 474.157 347.626L475.707 266.25Z"/>
	<path fill="#000" d="M280.668 520.205C292.038 521.258 304.057 520.467 315.497 520.478C319.617 520.481 325.55 519.768 329.374 521.166L329.391 521.884L328.123 523.186L299.128 522.484L287.139 522.477C284.942 522.48 282.631 522.755 280.545 521.997L280.668 520.205Z"/>
	<path fill="#000" d="M352.318 346.008L368.552 346.036L368.348 353.353L351.995 353.202L352.318 346.008Z"/>
	<defs>
		<linearGradient id="gradient_0" gradientUnits="userSpaceOnUse" x1="236.95367" y1="649.29028" x2="250.56407" y2="671.1333">
			<stop offset="0" stop-color="#000"/>
			<stop offset="1" stop-color="#000"/>
		</linearGradient>
	</defs>
	<path fill="url(#gradient_0)" d="M231.005 651.407C239.87 658.12 247.956 662.079 258.437 665.821C262.088 667.124 265.951 668.102 269.447 669.762C255.044 667.85 240.438 663.396 228.041 655.596L231.005 651.407Z"/>
	<path fill="#000" d="M404.801 393.25C407.441 392.377 410.721 392.951 413.5 392.954L430.152 392.804L427.651 396.758C426.646 397.537 425.526 398.236 424.25 398.432C419.802 399.117 414.381 398.69 409.846 398.62C407.962 398.591 405.822 398.905 404.309 397.75C404.234 396.053 404.369 394.894 404.801 393.25Z"/>
	<path fill="#000" d="M585.936 393.069L605.537 392.785C609.971 392.765 614.657 392.55 619 393.523C619.796 394.743 619.33 396.313 619.229 397.75C617.279 399.08 613.219 398.52 610.917 398.521L590.702 398.487L585.936 393.069Z"/>
	<path fill="#000" d="M381.171 529.25C381.401 529.417 381.727 529.5 381.861 529.75C382.137 530.263 381.872 533.579 381.875 534.323C381.895 540.309 381.225 547.274 382.25 553.134L384.727 553.75L375.375 553.974C374.017 553.94 373.329 554.232 372.31 553.25L372.354 542.25C372.363 541.304 372.128 539.267 372.429 538.478C372.609 538.006 373.96 536.862 374.341 536.459L381.171 529.25Z"/>
	<path fill="#000" d="M641.494 548.775L641.519 524.188L649.492 531.767C649.539 535.56 650.466 551.144 648.918 553.371C647.068 553.787 643.317 554.106 641.619 553.25L641.494 548.775Z"/>
	<path fill="#000" d="M641.494 548.775L642.073 547.045C643.994 547.283 647.049 550.247 648.75 551.433L648.918 553.371C647.068 553.787 643.317 554.106 641.619 553.25L641.494 548.775Z"/>
	<path fill="#000" d="M372.454 346.042L371.757 325.737C378.065 328.658 382.535 332.483 384.939 339.195C386.091 342.412 387.522 349.457 386.268 352.526L386.01 352.977L385.908 346.11L372.454 346.042Z"/>
	<path fill="#000" d="M474.546 505.836L475.178 505.231C475.095 503.57 474.907 501.933 475.318 500.304C477.667 502.211 481.822 502.139 484.842 502.97C485.698 503.206 486.117 503.092 486.948 502.86C487.963 503.874 487.436 506.087 488.428 506.335L488.504 517.767C485.851 518.095 483.208 518.228 480.582 518.715C478.609 519.082 476.365 518.965 474.352 519.021L474.546 505.836Z"/>
	<path fill="#000" d="M558.477 448.057L558.496 429.972L567.697 441.035C568.554 442.066 570.479 443.862 570.877 445.056C571.165 445.921 570.87 448.307 570.868 449.343C570.858 453.609 571.068 458.009 570.817 462.26L570.657 463.573C566.452 458.38 563.18 452.898 558.477 448.057Z"/>
	<path fill="#000" d="M352.318 346.008C353.76 338.671 356.747 332.245 363.151 327.97C364.484 327.08 365.737 326.442 367.25 325.915L368.25 326.307C368.791 329.465 368.562 332.867 368.564 336.076C368.567 339.352 368.768 342.775 368.552 346.036L352.318 346.008Z"/>
	<path fill="#000" d="M579.524 473.285L579.978 455.822L589.11 466.784C590.012 467.939 591.717 469.616 592.311 470.901C592.74 471.828 592.515 474.209 592.527 475.225L592.684 489.461L579.524 473.285Z"/>
	<path fill="#000" d="M410.619 516.29L410.529 501.223C410.522 500.355 410.209 497.899 410.496 497.165C411.055 495.735 413.24 493.879 414.324 492.679L424.337 481.364C425.034 485.928 424.558 491.122 424.559 495.761L424.629 502.897L418.095 503.034C415.71 506.559 411.153 510.435 410.953 514.731C410.91 515.651 410.963 515.218 410.619 516.29Z"/>
	<path fill="#000" d="M418.095 503.034C419.986 500.288 422.057 497.954 424.559 495.761L424.629 502.897L418.095 503.034Z"/>
	<path fill="#000" d="M621.465 533.82L621.897 533.901C624.533 534.408 631.766 537.373 634.12 536.333L634.668 535.962L634.931 535.798L634.932 553.708L621.483 553.662L621.465 533.82Z"/>
	<path fill="#000" d="M390.003 530.151L389.692 524.106C389.655 522.738 389.489 520.892 389.74 519.576C390.454 515.846 400.543 506.348 403.483 503.271L403.533 517.311C403.484 520.759 403.592 524.286 403.015 527.693C399.087 529.069 395.543 528.968 391.448 528.853L390.003 530.151Z"/>
	<path fill="#000" d="M391.448 528.853L403.533 517.311C403.484 520.759 403.592 524.286 403.015 527.693C399.087 529.069 395.543 528.968 391.448 528.853Z"/>
	<path fill="#000" d="M216.909 674.188C221.102 675.378 225.429 676.724 229.78 677.164C238.077 678.002 247.37 676.595 255.609 675.643C247.561 679.487 237.854 680.295 229.09 681.231C236.851 686.228 245.217 689.366 253.82 692.572C261.662 694.967 269.673 696.112 277.769 697.166L268.75 697.488C248.591 696.864 230.653 688.915 216.909 674.188Z"/>
	<path fill="#000" d="M600.525 499.307L600.623 479.711L608.539 489.222C609.837 490.668 612.864 493.151 613.56 494.846C614.026 495.981 613.753 498.589 613.763 499.875C613.802 504.875 614.063 510.088 613.714 515.07L600.525 499.307Z"/>
	<path fill="#000" d="M536.946 422.403L537.143 402.541L545.879 414.155C547.225 415.908 549.273 418.099 549.992 420.183C550.623 422.012 550.255 424.939 550.269 426.866L550.511 440.656C544.94 435.434 542.909 427.659 536.946 422.403Z"/>
	<path fill="#000" d="M639.888 348.014C640.188 341.669 641.388 335.575 646.24 331C648.973 328.424 651.81 327.228 655.32 326.2C656.849 333.048 656.179 341.01 656.108 348.025L639.888 348.014Z"/>
	<path fill="#000" d="M432.368 494.003L432.47 476.667C432.477 475.519 432.154 472.815 432.499 471.813C432.763 471.046 434.662 469.276 435.252 468.587C438.128 465.228 441.325 460.727 444.708 457.934L445.478 457.408L445.981 494.851C445.927 500.026 446.159 505.402 445.576 510.543C445.143 506.901 445.424 502.851 445.465 499.181L445.76 479.387C440.652 483.447 436.757 489.183 432.368 494.003Z"/>
	<path fill="#000" d="M600.514 530.874L614.094 532.239L614.481 553.97L600.493 553.963L600.514 530.874Z"/>
	<path fill="#000" d="M372.501 357.013L386.526 357.041L386.557 379.975L372.593 379.644L372.501 357.013Z"/>
	<path fill="#000" d="M403.015 527.693L403.438 553.538L389.814 553.524L390.003 530.151L391.448 528.853C395.543 528.968 399.087 529.069 403.015 527.693Z"/>
	<path fill="#000" d="M600.525 499.307L613.714 515.07L614.094 532.239L600.514 530.874L600.525 499.307Z"/>
	<defs>
		<linearGradient id="gradient_1" gradientUnits="userSpaceOnUse" x1="665.09094" y1="327.7027" x2="666.40161" y2="352.35086">
			<stop offset="0" stop-color="#000"/>
			<stop offset="1" stop-color="#000"/>
		</linearGradient>
	</defs>
	<path fill="url(#gradient_1)" d="M658.981 327.25L659.808 327.113C662.176 327.011 666.047 329.607 667.75 331.095C673.392 336.026 674.067 346.555 674.566 353.49L658.874 353.179L658.704 337.259C658.674 333.992 658.354 330.456 658.981 327.25Z"/>
	<path fill="#000" d="M621.472 522.475L621.53 503.106L631.96 514.745C632.7 515.573 634.78 517.473 635.1 518.474C635.357 519.279 635.065 521.548 635.055 522.482L634.931 535.798L634.668 535.962L634.12 536.333C631.766 537.373 624.533 534.408 621.897 533.901L621.465 533.82L621.472 522.475Z"/>
	<path fill="#000" d="M621.472 522.475L634.668 535.962L634.12 536.333C631.766 537.373 624.533 534.408 621.897 533.901L621.465 533.82L621.472 522.475Z"/>
	<path fill="#000" d="M579.469 526.975C583.993 528.227 588.27 529.146 592.989 528.996L593.014 553.975L579.289 553.964L579.469 526.975Z"/>
	<path fill="#000" d="M369.972 232.285C377.332 254.072 387.445 274.904 400.142 294.071C403.901 299.746 407.602 305.108 412.209 310.144C413.549 311.61 417.133 314.602 417.47 316.443C415.873 316.297 412.694 312.471 411.525 311.246C395.986 294.971 385.702 275.003 376.714 254.595C375.367 251.536 372.911 242.987 370.25 241.594L369.468 242.749L362.766 258.967C352.000 280.638 339.351 302.205 321.94 318.75L321.353 318.5C321.905 316.646 323.393 315.512 324.704 314.168L330.941 307.407C334.966 302.814 338.513 297.706 341.854 292.597C347.735 283.602 352.699 274.213 357.461 264.598C360.125 259.22 362.955 253.827 365.077 248.209C367.028 243.041 368.387 237.579 369.972 232.285Z"/>
	<path fill="#000" d="M372.539 384.508L386.884 384.514L386.559 409.495L372.504 409.474L372.539 384.508Z"/>
	<path fill="#000" d="M745.002 556.289C752.149 555.384 759.785 555.914 766.985 556.048C766.411 561.143 765.705 566.662 763.856 571.483C762.792 574.258 761.353 576.782 760.656 579.698C759.749 579.189 758.218 579.13 757.175 578.947L752.877 579.164L753.07 577.183C753.041 575.811 753.415 572.151 752.94 571.057C752.621 570.324 749.157 568.163 748.336 567.426C746.771 566.021 745.677 564.474 744.642 562.658L744.221 562.047L745.25 560.62C745.554 558.98 745.387 557.903 745.002 556.289Z"/>
	<path fill="#000" d="M754.145 569.538C756.308 572.65 756.781 575.268 757.175 578.947L752.877 579.164L753.07 577.183C753.491 575.308 753.547 573.784 753.37 571.867C753.279 570.889 753.721 570.405 754.145 569.538Z"/>
	<path fill="#000" d="M744.642 562.658C746.501 562.525 747.046 562.418 748.534 563.75L754.145 569.538C753.721 570.405 753.279 570.889 753.37 571.867C753.547 573.784 753.491 575.308 753.07 577.183C753.041 575.811 753.415 572.151 752.94 571.057C752.621 570.324 749.157 568.163 748.336 567.426C746.771 566.021 745.677 564.474 744.642 562.658Z"/>
	<path fill="#000" d="M309.661 421.008L331.753 421.03L331.353 424.398C329.316 425.757 313.179 424.577 309.722 424.489C309.282 424.478 306.269 424.263 306.062 424.395C306.062 424.395 305.77 425.483 305.734 425.617L289.306 487.526L280.749 519.753L280.668 520.205L280.545 521.997C279.742 521.376 279.24 520.806 279.151 519.75C278.681 514.177 281.535 506.706 282.976 501.25L288.98 478.25L297.507 445.762L302.604 427.117C303.22 425.218 303.891 422.458 305.25 420.999L309.661 421.008Z"/>
	<path fill="#000" d="M352.019 357.011L368.525 357.028L368.492 379.973L352.501 379.97L352.019 357.011Z"/>
	<path fill="#000" d="M658.973 356.511L674.583 356.52L674.569 380.691L659.042 380.674L658.973 356.511Z"/>
	<path fill="#000" d="M558.362 524.011L571.143 524.022L571.462 553.976L558.042 553.656L558.362 524.011Z"/>
	<path fill="#000" d="M639.51 356.513L656.012 356.517L656.045 380.702L639.507 380.655L639.51 356.513Z"/>
	<path fill="#000" d="M352.509 384.512L368.531 384.518L368.528 409.496L352.54 409.47L352.509 384.512Z"/>
	<defs>
		<linearGradient id="gradient_2" gradientUnits="userSpaceOnUse" x1="459.29318" y1="433.84723" x2="460.70682" y2="461.15277">
			<stop offset="0" stop-color="#000"/>
			<stop offset="1" stop-color="#000"/>
		</linearGradient>
	</defs>
	<path fill="url(#gradient_2)" d="M453.327 463.272L453.29 451.085C453.286 450.591 453.078 448.54 453.264 448.155C454.062 446.5 456.404 444.391 457.628 442.893L466.837 431.094C467.525 432.69 467.006 436.842 466.999 438.694C466.969 446.344 467.34 454.139 466.555 461.755L466.568 462.909C461.87 466.789 458.404 472.427 453.385 475.827L453.327 463.272Z"/>
	<path fill="#000" d="M453.327 463.272C457.534 461.067 460.959 455.886 466.027 456.365C466.606 457.987 466.486 460.029 466.555 461.755L466.568 462.909C461.87 466.789 458.404 472.427 453.385 475.827L453.327 463.272Z"/>
	<path fill="#000" d="M529.189 518.754L529.368 553.698L516.506 553.666L516.517 521.297C520.441 521.459 524.906 522.313 528.75 521.759L529.189 518.754Z"/>
	<path fill="#000" d="M659.197 384.013L674.545 383.824L674.492 410.969L659.525 410.974L659.197 384.013Z"/>
	<path fill="#000" d="M432.368 494.003C436.757 489.183 440.652 483.447 445.76 479.387L445.465 499.181C445.424 502.851 445.143 506.901 445.576 510.543L445.479 517.938L432.504 517.941C431.166 510.302 432.038 501.717 432.368 494.003Z"/>
	<path fill="#000" d="M655.744 234.25C657.132 235.144 659.416 244.13 660.144 246.078L664.887 257.328C672.054 272.573 681.21 287.607 691.384 301.035C693.783 304.201 696.286 307.211 699.031 310.083C701.477 312.642 704.596 315.261 706.108 318.474C698.947 313.009 693.536 306.634 688.035 299.583C675.168 283.09 665.648 264.611 656.997 245.657L656 244.055C654.643 244.202 653.493 248.238 652.919 249.57C644.779 268.484 635.216 285.812 622.22 301.851C617.634 307.511 613.011 313.1 606.76 316.962C608.617 314.05 611.635 311.497 613.991 308.949C616.911 305.79 619.568 302.407 622.102 298.933C636.747 278.864 646.963 257.395 655.744 234.25Z"/>
	<path fill="#000" d="M536.497 523.187L550.578 523.166L550.937 553.717L536.478 553.673L536.497 523.187Z"/>
	<path fill="#000" d="M779.413 654.75C782.335 654.141 784.976 656.271 787.65 657.307C789.824 658.15 792.108 658.794 794.342 659.465C784.824 664.562 774.998 668.343 764.769 671.71C781.401 673.886 799.712 672.9 815.935 668.66C807.005 676.913 798.698 684.844 787.328 689.66C783.786 691.161 779.824 692.039 776.11 693.053C770.873 694.23 765.921 694.611 760.565 694.201C773.526 691.451 785.356 688.249 796.95 681.527L797.035 675.496C786.329 675.577 774.701 675.552 764.123 673.883C759.685 673.183 755.359 671.939 751.022 670.792C763.34 670.01 774.036 666.333 785.313 661.523C783.479 659.862 781.014 657.845 779.852 655.637L779.413 654.75Z"/>
	<path fill="#000" d="M639.512 384.029L656.014 384.027L656.27 410.972L639.504 410.965L639.512 384.029Z"/>
	<defs>
		<linearGradient id="gradient_3" gradientUnits="userSpaceOnUse" x1="463.89468" y1="553.02795" x2="455.87082" y2="521.03088">
			<stop offset="0" stop-color="#000"/>
			<stop offset="1" stop-color="#000"/>
		</linearGradient>
	</defs>
	<path fill="url(#gradient_3)" d="M466.726 519.878L467.35 553.121L467.137 553.613L452.899 553.592C453.591 549.118 453.455 544.649 453.471 540.134L453.496 519.913L466.726 519.878Z"/>
	<path fill="#000" d="M517.025 174.307C519.53 174.663 522.299 175.322 524.659 176.213C531.748 178.89 537.418 184.998 540.25 191.964C541.133 194.134 542.189 196.623 541.25 198.9C538.863 199.911 535.53 199.49 532.943 199.496L517.042 199.484L517.025 174.307Z"/>
	<path fill="#000" d="M495.522 520.912C500.058 519.764 504.63 520.258 509.152 519.063C510.448 530.123 509.467 542.509 509.435 553.692L493.748 553.641C494.288 553.168 494.628 553.017 495.28 552.75L495.522 520.912Z"/>
	<path fill="#000" d="M516.816 209.528C525.565 209.257 534.341 209.017 543.032 210.238C541.167 216.327 538.617 221.391 534.79 226.474C528.894 231.071 524.043 232.865 516.904 234.985L516.816 209.528Z"/>
	<defs>
		<linearGradient id="gradient_4" gradientUnits="userSpaceOnUse" x1="440.04926" y1="552.85358" x2="437.37494" y2="519.19214">
			<stop offset="0" stop-color="#000"/>
			<stop offset="1" stop-color="#000"/>
		</linearGradient>
	</defs>
	<path fill="url(#gradient_4)" d="M432.504 517.941L445.479 517.938L446.123 553.728C441.752 553.104 436.472 553.666 432 553.647L432.504 517.941Z"/>
	<path fill="#000" d="M504.464 174.525L506.75 174.337L507.428 175L507.477 199.751L486.878 199.424L484.5 198.978C483.225 198.62 482.203 198.422 481.559 197.25L482.938 193.5C487.558 182.875 494.02 178.688 504.464 174.525Z"/>
	<path fill="#000" d="M483.567 209.75C491.489 208.808 499.851 209.357 507.812 209.531L507.436 233.982L506.25 234.588L501.672 233.625C494.415 231.441 487.796 225.364 484.298 218.691C483.21 216.616 481.242 212.602 481.966 210.25L483.567 209.75Z"/>
	<defs>
		<linearGradient id="gradient_5" gradientUnits="userSpaceOnUse" x1="484.47046" y1="552.9939" x2="478.0112" y2="519.91205">
			<stop offset="0" stop-color="#000"/>
			<stop offset="1" stop-color="#000"/>
		</linearGradient>
	</defs>
	<path fill="url(#gradient_5)" d="M474.352 519.021C476.365 518.965 478.609 519.082 480.582 518.715C483.208 518.228 485.851 518.095 488.504 517.767L488.449 553.603C482.148 553.988 473.258 555.317 467.137 553.613L467.35 553.121L474.114 553.126L474.352 519.021Z"/>
	<path fill="#000" d="M467.763 629.304L471.559 627.42L471.894 763.25L471 764.127C469.433 764.105 469.236 764.331 468.138 763.25C467.165 758.137 467.496 752.805 467.513 747.622L467.526 725.162L467.763 629.304Z"/>
	<path fill="#000" d="M668.356 625.562L668.054 604.507L697.958 604.51L697.715 625.017L668.356 625.562Z"/>
	<path fill="#000" d="M579.524 473.285L592.684 489.461L592.989 528.996C588.27 529.146 583.993 528.227 579.469 526.975L579.524 473.285Z"/>
	<path fill="#000" d="M807.45 620.311C806.26 621.791 804.287 622.824 802.701 623.843C797.358 627.276 792.243 629.838 786.168 631.745C800.025 633.567 812.616 630.957 825.583 626.134C820.223 635.284 814.737 644.228 805.277 649.552C792.978 644.899 784.722 633.245 779.018 621.997C787.464 622.965 795.192 620.849 802.489 616.606C804.256 617.761 805.904 618.862 807.45 620.311Z"/>
	<path fill="#000" d="M591.918 640.122C591.38 636.005 591.641 631.448 591.618 627.28L591.534 605.036L621.919 605.044L621.583 631.205L621.25 626.299C618.357 625.58 614.705 626.001 611.72 625.999L592.07 626.011C592.078 630.581 592.522 635.612 591.918 640.122Z"/>
	<path fill="#000" d="M324.502 626.026L324.507 605.518L356.086 605.516L356.041 626.002L324.502 626.026Z"/>
	<path fill="#000" d="M453.385 475.827C458.404 472.427 461.87 466.789 466.568 462.909L466.726 519.878L453.496 519.913L453.385 475.827Z"/>
	<path fill="#000" d="M362.904 625.95L362.607 605.513L394.949 605.511L394.918 632.563C394.875 636.453 395.216 640.861 394.577 644.659C393.832 638.74 394.431 632.05 394.442 626.047L362.904 625.95Z"/>
	<defs>
		<linearGradient id="gradient_6" gradientUnits="userSpaceOnUse" x1="421.49207" y1="552.84631" x2="413.21014" y2="504.82611">
			<stop offset="0" stop-color="#000"/>
			<stop offset="1" stop-color="#000"/>
		</linearGradient>
	</defs>
	<path fill="url(#gradient_6)" d="M418.095 503.034L424.629 502.897L424.87 553.467L410.456 553.64L410.619 516.29C410.963 515.218 410.91 515.651 410.953 514.731C411.153 510.435 415.71 506.559 418.095 503.034Z"/>
	<path fill="#000" d="M630.082 654.374C628.838 652.634 629.561 609.898 629.551 604.513L660.544 604.821L660.499 626.038L630.049 626.015L630.082 654.374Z"/>
	<path fill="#000" d="M401.909 653.568C401.315 652.175 401.509 650.475 401.503 648.985L401.541 638.008L401.508 605.513L432.594 605.344L432.556 626.998L411.016 626.932C408.715 626.895 403.98 626.165 402.001 626.98L401.909 653.568Z"/>
	<path fill="#000" d="M438.191 805.75C438.703 805.544 438.894 805.439 439.507 805.358C443.841 804.785 448.905 805.334 453.326 805.338L485.153 805.361L584.829 805.479C585.712 805.499 586.022 805.508 586.75 805.968C587.304 807.711 587.507 808.793 587.25 810.614C577.221 811.161 566.903 810.666 556.847 810.663L496.03 810.654L473.993 810.696C465.138 810.913 456.243 811.228 447.391 810.795C444.372 810.647 441.191 810.819 438.25 810.073C437.538 808.628 437.946 807.268 438.191 805.75Z"/>
	<path fill="#000" d="M443.823 788.75C446.879 788.09 450.595 788.494 453.728 788.487L475.003 788.446L553.136 788.322L571.251 788.289C573.514 788.284 577.087 787.838 579.153 788.583L579.546 794.494L473.474 794.48L451.298 794.477C449.248 794.477 445.316 794.989 443.643 793.938C443.519 792.111 443.514 790.558 443.823 788.75Z"/>
	<path fill="#000" d="M558.477 448.057C563.18 452.898 566.452 458.38 570.657 463.573L571.143 524.022L558.362 524.011L558.477 448.057Z"/>
	<path fill="#000" d="M401.909 653.568L402.001 626.98C403.98 626.165 408.715 626.895 411.016 626.932L432.556 626.998L432.589 654.684L413.838 654.664C410.134 654.656 406.224 654.921 402.557 654.391L401.909 653.568Z"/>
	<path fill="#000" d="M591.918 640.122C592.522 635.612 592.078 630.581 592.07 626.011L611.72 625.999C614.705 626.001 618.357 625.58 621.25 626.299L621.583 631.205C621.724 638.848 622.553 647.257 621.352 654.811C615.455 655.311 609.603 655.031 603.697 654.974C599.804 654.936 595.666 655.213 591.805 654.81L591.918 640.122Z"/>
	<path fill="#000" d="M668.356 625.562L697.715 625.017L697.459 654.965C688.077 654.965 677.834 655.834 668.56 654.77L668.356 625.562Z"/>
	<path fill="#000" d="M630.082 654.374L630.049 626.015L660.499 626.038L660.379 654.49L639.843 654.791C636.691 654.738 633.171 654.923 630.082 654.374Z"/>
	<path fill="#000" d="M362.904 625.95L394.442 626.047C394.431 632.05 393.832 638.74 394.577 644.659L394.401 654.715C392.552 655.441 388.779 654.728 386.688 654.713L363.016 654.661L362.904 625.95Z"/>
	<path fill="#000" d="M324.502 626.026L356.041 626.002L355.982 654.98L324.507 654.984L324.502 626.026Z"/>
	<path fill="#000" d="M467.763 629.304L467.769 598.515L556.911 598.51L556.562 760.745C556.523 762.321 556.732 762.95 555.75 764.222C554.273 764.486 554.324 764.536 553.055 763.75C551.835 760.436 552.459 755.803 552.48 752.271L552.894 723.75L552.928 654.221C551.895 647.496 552.507 640.157 552.539 633.363L552.477 602.453C545.089 601.617 536.86 602.469 529.374 602.474L486.917 602.483L476.723 602.483C475.094 602.483 473.215 602.276 471.64 602.72L471.559 627.42L467.763 629.304Z"/>
	<defs>
		<linearGradient id="gradient_7" gradientUnits="userSpaceOnUse" x1="534.56799" y1="636.44995" x2="574.43201" y2="756.55005">
			<stop offset="0" stop-color="#000"/>
			<stop offset="1" stop-color="#000"/>
		</linearGradient>
	</defs>
	<path fill="url(#gradient_7)" d="M552.928 654.221L553.121 629.75C554.28 628.966 554.591 629.226 556 629.394C556.885 631.141 556.44 634.275 556.441 636.22L556.455 653.611L556.446 726.116C556.442 737.46 555.616 749.466 556.562 760.745C556.523 762.321 556.732 762.95 555.75 764.222C554.273 764.486 554.324 764.536 553.055 763.75C551.835 760.436 552.459 755.803 552.48 752.271L552.894 723.75L552.928 654.221Z"/>
	<path fill="#000" d="M429.762 824.515L594.856 824.51L596.003 831.504L429.779 831.475L429.762 824.515Z"/>
	<defs>
		<linearGradient id="gradient_8" gradientUnits="userSpaceOnUse" x1="490.94431" y1="406.77313" x2="474.59509" y2="500.75504">
			<stop offset="0" stop-color="#000"/>
			<stop offset="1" stop-color="#000"/>
		</linearGradient>
	</defs>
	<path fill="url(#gradient_8)" d="M474.546 505.836L474.377 442.55L474.174 427.652C474.152 425.985 473.776 423.504 474.115 421.946C474.388 420.691 476.632 418.032 477.419 416.949L487.802 403.093L488.385 478.611L488.495 498.025C488.497 500.523 488.894 503.93 488.428 506.335C487.436 506.087 487.963 503.874 486.948 502.86C486.117 503.092 485.698 503.206 484.842 502.97C481.822 502.139 477.667 502.211 475.318 500.304C474.907 501.933 475.095 503.57 475.178 505.231L474.546 505.836Z"/>
	<path fill="#000" d="M668.381 660.507L697.715 660.514L697.697 704.235L668.387 704.199L668.381 660.507Z"/>
	<path fill="#000" d="M422.351 844.51L603.743 844.761L604.637 851.667L422.228 851.648L422.351 844.51Z"/>
	<path fill="#000" d="M536.946 422.403C542.909 427.659 544.94 435.434 550.511 440.656L550.578 523.166L536.497 523.187L536.946 422.403Z"/>
	<path fill="#000" d="M591.844 660.513L622.093 660.786L621.907 704.267L591.582 704.191L591.844 660.513Z"/>
	<path fill="#000" d="M629.818 660.509L660.467 660.522L660.462 704.222L629.849 704.205L629.818 660.509Z"/>
	<path fill="#000" d="M401.564 661.016L432.835 660.782L432.624 704.23L401.582 704.195L401.564 661.016Z"/>
	<path fill="#000" d="M324.504 661.009L356.11 661.016L356.148 704.247L324.485 703.975L324.504 661.009Z"/>
	<path fill="#000" d="M362.686 661.011L394.835 661.02L394.825 704.499L362.925 704.47L362.686 661.011Z"/>
	<path fill="#000" d="M405.961 886.515L616.531 886.521L616.522 893.974L405.991 893.481L405.961 886.515Z"/>
	<path fill="#000" d="M415.227 864.75L611.595 864.518C611.6 867.068 611.784 869.738 611.315 872.25L609.75 872.484L412.958 872.474C412.926 870.007 412.685 867.389 413.25 864.976L415.227 864.75Z"/>
	<path fill="#000" d="M512.102 65.5504C520.783 91.2316 533.486 113.624 547.799 136.498C556.874 151.001 566.259 165.284 576.679 178.866L608.088 218.328C592.633 206.813 580.318 190.335 568.568 175.243C555.539 158.506 542.909 142.149 532.925 123.32C524.561 107.547 518.422 91.4522 513.13 74.4413L512.34 74.75C507.652 86.6233 503.165 98.4963 497.53 109.972C477.606 150.547 448.469 187.951 416.401 219.639C419.146 214.117 423.45 209.708 427.237 204.905L450.107 175.429C467.814 150.802 484.425 124.385 497.962 97.2318L512.102 65.5504Z"/>
	<defs>
		<linearGradient id="gradient_9" gradientUnits="userSpaceOnUse" x1="533.89832" y1="381.68591" x2="511.39267" y2="519.09021">
			<stop offset="0" stop-color="#000"/>
			<stop offset="1" stop-color="#000"/>
		</linearGradient>
	</defs>
	<path fill="url(#gradient_9)" d="M516.517 521.297L516.965 376.79C519.832 380.115 522.262 383.849 524.732 387.473C526.314 389.793 528.25 392.246 528.954 395.009C529.662 397.784 529.115 401.924 529.088 404.809L529.063 423.458L529.189 518.754L528.75 521.759C524.906 522.313 520.441 521.459 516.517 521.297Z"/>
	<defs>
		<linearGradient id="gradient_10" gradientUnits="userSpaceOnUse" x1="514.71832" y1="380.17081" x2="492.23154" y2="518.80768">
			<stop offset="0" stop-color="#000"/>
			<stop offset="1" stop-color="#000"/>
		</linearGradient>
	</defs>
	<path fill="url(#gradient_10)" d="M495.522 520.912L496.003 425.465L496.253 400.925C496.29 398.728 495.855 395.022 496.444 392.972C496.793 391.754 498.669 389.606 499.453 388.537L508.842 376.087L509.152 519.063C504.63 520.258 500.058 519.764 495.522 520.912Z"/>
	<path fill="#000" d="M261.948 579.022C261.007 576.839 261.401 572.609 261.344 570.133C262.856 568.702 265.226 567.889 267.107 567.007L267.441 557.5L268 557.053C269.143 558.64 268.59 564.153 268.594 566.279C272.932 564.809 276.131 562.558 278.433 558.561L278.77 557.957L290.282 554.784L275.562 565.14C272.448 567.319 268.381 569.512 266.192 572.687C265.234 574.078 265.267 574.805 265.535 576.41L741 576.946L741.589 577.75L741.25 579.348C739.968 580.159 739.017 580.109 737.521 580.174C733.533 580.348 729.471 580.006 725.476 579.972L705.166 580.089L607.294 579.978L362.008 579.686L291.117 579.616L272.065 579.559C269.318 579.55 265.946 579.918 263.257 579.494C262.641 579.397 262.448 579.267 261.948 579.022Z"/>
	<path fill="#000" d="M757.175 578.947C758.218 579.13 759.749 579.189 760.656 579.698C760.582 580.029 760.378 581.247 760.221 581.523C755.975 594.965 747.964 603.946 737.46 613.018L733.111 606.235L732.62 623.748L754.363 618.866C751.326 623.712 748.384 628.691 744.613 633.015C741.577 636.494 737.947 639.511 734.421 642.48C735.725 639.813 737.689 637.803 739.361 635.387C741.87 631.764 743.74 628.197 745.226 624.037L732.673 625.233C732.193 630.837 731.766 637.469 732.662 643.024C732.889 644.434 732.48 645.923 732.475 647.363L732.469 661.608L732.519 711.861C732.531 720.035 731.829 728.988 732.789 737.064L746.109 736.969L746.172 759.185C746.176 761.114 746.696 764.81 745.75 766.484C744.207 766.876 744.056 766.795 742.545 766.25C741.736 763.372 741.886 760.276 741.857 757.307L742.052 741.506L626.214 741.495L593.164 741.504C588.238 741.508 582.978 742.094 578.123 741.345C577.427 740.024 577.61 739.588 577.75 738.135C578.643 737.318 579.527 737.227 580.688 737.1C584.209 736.716 588.192 737.271 591.755 737.308L613.255 737.328L695.852 737.312L713.466 737.323C718.243 737.361 722.809 737.662 727.565 737.013L728.508 736.904L728.714 592.517L750.904 592.515L753.122 584.329L752.877 579.164L757.175 578.947Z"/>
	<path fill="#000" d="M757.175 578.947C758.218 579.13 759.749 579.189 760.656 579.698C760.582 580.029 760.378 581.247 760.221 581.523C758.412 581.188 754.898 583.452 753.122 584.329L752.877 579.164L757.175 578.947Z"/>
	<path fill="#000" d="M477.417 639.949L477.117 609.019L546.972 609.034L546.917 678.263C546.195 674.927 546.523 670.774 546.508 667.337L546.461 647.345C546.456 645.116 546.849 642.106 546.184 639.992L477.417 639.949Z"/>
	<path fill="#000" d="M328.123 523.186C323.532 526.12 319.443 530.796 315.022 534.124L300.329 544.967C299.551 545.525 297.635 547.27 296.785 547.483C293.832 548.223 289.115 547.746 285.977 547.821L256.266 548.462L266.401 517.403L282.019 466.175L289.89 440.375C291.35 435.618 292.523 430.513 294.806 426.074C297.472 420.891 300.667 418.716 306.023 417.068L306.456 417.815C306.909 418.613 307.17 419.362 307.409 420.25L309.661 421.008L305.25 420.999C303.891 422.458 303.22 425.218 302.604 427.117L297.507 445.762L288.98 478.25L282.976 501.25C281.535 506.706 278.681 514.177 279.151 519.75C279.24 520.806 279.742 521.376 280.545 521.997C282.631 522.755 284.942 522.48 287.139 522.477L299.128 522.484L328.123 523.186Z"/>
	<defs>
		<linearGradient id="gradient_11" gradientUnits="userSpaceOnUse" x1="718.28412" y1="544.45264" x2="742.82977" y2="421.97406">
			<stop offset="0" stop-color="#000"/>
			<stop offset="1" stop-color="#000"/>
		</linearGradient>
	</defs>
	<path fill="url(#gradient_11)" d="M694.466 417.25C697.723 416.464 701.491 416.953 704.846 416.967L724.19 417.032L749.503 488.949C755.644 506.22 762.734 523.315 767.75 540.959C768.323 542.975 768.639 544.776 768.25 546.85C766.024 547.71 763.385 547.524 761.013 547.584L744 547.492C738.682 547.495 731.902 548.52 726.795 547.151C716.554 539.157 707.028 528.03 698.321 518.368L741.436 517.722L731.345 477.926L719.447 429.487C719.263 428.733 717.897 423.01 717.889 423.006C717.504 422.808 714.932 423 714.361 422.999L699.812 422.968C698.011 422.964 695.287 423.434 693.955 422.25C693.818 420.339 693.78 419.055 694.466 417.25Z"/>
	<path fill="#000" d="M270.057 583.25L271.258 582.994C273.734 585.172 274.732 588.801 276.491 591.561C277.199 592.672 277.739 593.861 279.049 594.152L281.203 591.577L295.385 591.553L295.48 737.041C297.039 737.957 319.148 737.297 323.667 737.297L399.007 737.292L441.75 737.432L442.458 738.25L442.124 740.75C441.749 741.029 441.433 741.411 441 741.587C439.789 742.077 417.54 741.502 414.484 741.505L284.042 741.696C283.952 752.529 284.769 763.948 283.916 774.71C283.63 778.327 282.364 782.003 281.816 785.624L278.59 811.013L270.461 000.1C268.683 778.739 260.362 813.411 258.906 818.255L246.431 763.523L242.171 785.377L240.163 795.325C236.865 783.718 233.711 771.49 228.496 760.591C227.302 763.376 226.812 766.883 226.271 769.869C224.686 778.616 224.319 787.516 223.439 796.347C221.85 793.536 221.05 789.745 220.051 786.645L213.871 767.263L208.521 795.445C206.092 792.086 205.626 785.297 204.444 781.176L196.224 754.497C194.669 757.445 194.851 764.028 194.556 767.461L192.207 792.179C187.295 779.453 186.303 766.074 179.373 753.921L177.296 772.923L167.249 751.493L200.052 753.926L219.536 757.144C225.749 758.203 232.12 759.052 238.25 760.518L280.132 772.529L280.471 737.015L291.355 737.041L291.233 659.281L291.314 644.492C291.324 643.266 291.685 641.002 291.357 639.944C290.52 637.251 287.346 633.592 285.861 631.08C283.882 627.731 282.269 624.275 280.772 620.69L291.494 627.166C291.544 625.864 292.197 620.588 291.78 619.64C291.024 617.925 287.361 614.861 286.013 613.29C281.229 607.718 277.546 601.762 274.149 595.256C272.439 591.979 270.308 587.961 270.088 584.205L270.057 583.25Z"/>
	<path fill="#000" d="M840.283 753.705L856.388 753.362L847.439 771.923L842.564 756.01C841.009 758.17 840.365 761.525 839.688 764.085L835.537 782.772C833.979 779.508 833.775 775.048 833.005 771.5C831.9 766.406 830.451 761.56 828.394 756.774C825.102 765.587 822.905 774.943 820.385 784.015C819.474 787.298 818.749 791.464 817.259 794.473L812.723 767.248C808.367 775.892 805.134 785.469 803.01 794.914L795.96 762.746C794.778 764.163 794.076 767.929 793.513 769.743L786.4 792.643C783.537 783.7 783.008 774.354 779.599 765.488C773.273 775.467 770.143 788.216 767.884 799.679C766.807 805.148 766.111 810.558 764.542 815.931C763.486 812.891 763.12 809.289 762.478 806.12L758.642 788.121C757.708 783.654 756.985 779.034 755.551 774.699L747.383 807.492L742.288 776.45C734.61 787.398 731.425 801.093 726.352 813.349L722.362 788.212C720.799 790.211 719.707 793.106 718.716 795.44L711.93 813.802L705.624 791.498L692.36 827.957L687.204 803.222C681.311 813.443 677.3 825.014 674.521 836.448C673.675 834.573 673.617 831.8 673.326 829.75L671.142 814.517C667.74 817.011 663.518 819.657 661.007 823.084C659.426 825.242 658.753 828.247 658.018 830.788L654.716 842.251L654.166 828.644C651.629 829.492 631.919 849.076 628.318 852.449L592.975 776.977L469.902 776.679L443.277 776.584C438.255 776.54 432.385 775.884 427.477 776.93L399.745 841.877L395.089 852.866L365.573 824.852L364.247 840.902C362.01 837.67 361.197 832.941 359.954 829.25C358.123 823.812 355.299 817.115 352.057 812.42L347.569 836.805C346.344 835.131 345.723 832.465 345.041 830.5L340.642 817.994C338.351 811.977 335.675 806.356 332.459 800.775C331.331 802.271 328.086 823.83 327.486 826.95C324.821 822.73 324.37 815.628 323.005 810.75C321.247 804.464 319.168 798.681 316.28 792.824L311.62 820.158C308.695 810.179 306.437 799.836 302.364 790.26L296.529 816.639L284.716 774.498C299.31 779.47 312.945 786.126 326.422 793.584C336.197 798.993 346.153 804.67 355.25 811.164C369.544 821.368 382.443 833.245 393.981 846.466L424.925 772.001L595.671 772.505L629.104 846.318C642.7 833.473 656.399 820.663 671.657 809.775C720.961 774.597 780.552 758.493 840.283 753.705Z"/>
	<path fill="#000" d="M477.417 639.949L546.184 639.992C546.849 642.106 546.456 645.116 546.461 647.345L546.508 667.337C546.523 670.774 546.195 674.927 546.917 678.263L546.89 764.5L477.485 764.474L477.417 639.949Z"/>
	<path d="M488.344 678.75L490.75 678.503C492.408 678.662 493.877 679.893 494.85 681.184C496.296 683.104 496.05 688.363 495.393 690.616C494.817 692.591 493.463 693.455 491.75 694.405C490.831 694.484 489.885 694.599 488.964 694.458C487.373 694.215 486.138 693.341 485.275 692.007C483.698 689.571 483.697 684.717 484.655 682.081C485.313 680.271 486.702 679.55 488.344 678.75Z"/>
	<defs>
		<linearGradient id="gradient_12" gradientUnits="userSpaceOnUse" x1="518.85358" y1="593.67462" x2="452.95435" y2="314.8364">
			<stop offset="0" stop-color="#000"/>
			<stop offset="1" stop-color="#000"/>
		</linearGradient>
	</defs>
	<path fill="url(#gradient_12)" d="M511.743 299.25C512.927 299.78 514.359 303.622 514.981 304.889C536.365 348.42 569.243 383.616 600.439 420.183L667.283 498.443L694.839 529.335C700.94 536.14 707.215 542.295 712.219 550.027C702.544 550.086 693.114 547.877 684.66 543.094C664.502 531.69 648.266 513.469 632.892 496.541L612.27 473.784L574.18 426.372L534.218 376.555L519.087 355.152C516.761 351.684 514.834 347.282 511.774 344.459L509.517 348.227L453.912 423.965C427.879 457.001 399.641 488.318 369.75 517.876C356.861 530.621 340.662 545.431 322.063 548.219C316.102 549.113 309.213 548.516 303.152 548.481C309.706 542.974 316.955 538.441 323.701 533.2C329.869 528.408 335.717 522.775 341.362 517.358C367.053 492.709 389.042 464.64 411.691 437.27L445.354 396.466C464.425 373.435 483.247 350.022 498.653 324.322C503.504 316.23 507.406 307.619 511.743 299.25Z"/>
</svg>
