<?xml version="1.0" standalone="no"?>
<!DOCTYPE svg PUBLIC "-//W3C//DTD SVG 20010904//EN"
 "http://www.w3.org/TR/2001/REC-SVG-20010904/DTD/svg10.dtd">
<svg version="1.0" xmlns="http://www.w3.org/2000/svg"
 width="700.000000pt" height="700.000000pt" viewBox="0 0 700.000000 700.000000"
 preserveAspectRatio="xMidYMid meet">
<metadata>
Created by potrace 1.14, written by Peter Selinger 2001-2017
</metadata>
<g transform="translate(0.000000,700.000000) scale(0.100000,-0.100000)"
fill="#000000" stroke="none">
<path d="M3734 6410 c-86 -20 -117 -47 -740 -672 -689 -691 -659 -655 -658
-788 1 -104 24 -138 253 -368 111 -110 201 -203 201 -207 0 -3 -522 -528
-1161 -1167 -638 -639 -1181 -1190 -1205 -1224 -82 -114 -139 -264 -160 -414
-11 -82 -5 -236 11 -290 2 -8 7 -29 10 -46 7 -44 63 -180 98 -239 122 -203
323 -355 552 -416 103 -28 298 -34 404 -14 122 24 255 81 356 153 28 19 575
560 1218 1201 642 641 1167 1164 1168 1161 0 -3 2 -187 3 -410 2 -388 3 -407
23 -451 45 -99 146 -170 250 -174 28 -1 91 4 140 11 904 141 1665 735 2023
1579 34 81 114 316 124 369 3 12 14 62 25 111 52 236 49 332 -14 426 -31 48
-95 95 -149 111 -29 8 -164 12 -442 13 l-402 2 -841 840 c-462 463 -853 850
-868 861 -55 38 -154 57 -219 42z m851 -1490 c653 -652 799 -793 840 -812 48
-21 62 -22 340 -23 l290 -1 -3 -25 c-7 -45 -73 -213 -127 -321 -105 -208 -216
-360 -384 -528 -126 -125 -132 -130 -236 -206 -103 -75 -173 -118 -293 -178
-108 -55 -283 -124 -323 -129 l-22 -2 -1 317 -1 318 -814 814 -814 814 374
376 c206 206 376 375 379 375 3 1 360 -354 795 -789z m-1143 -1190 l230 -230
-1156 -1155 c-1297 -1298 -1199 -1210 -1351 -1209 -68 0 -89 4 -138 29 -68 34
-130 97 -160 163 -31 70 -30 199 2 267 19 40 246 273 1180 1208 636 636 1157
1157 1159 1157 2 0 107 -103 234 -230z"/>
</g>
</svg>
